<?xml version="1.0" encoding="utf-8"?>
<svg xmlns="http://www.w3.org/2000/svg" viewBox="0 0 24 24" fill="#131313"><path d="M 7 2 C 5.355469 2 4 3.355469 4 5 L 4 12 L 6 12 L 6.6875 10 L 6 10 L 6 5 C 6 4.433594 6.433594 4 7 4 L 17 4 C 17.566406 4 18 4.433594 18 5 L 18 10 L 17.3125 10 L 18 12 L 20 12 L 20 5 C 20 3.355469 18.644531 2 17 2 Z M 12 5 C 10.914063 5 10.023438 5.601563 9.8125 6.40625 C 9.796875 6.460938 9.613281 7.03125 9.40625 7.6875 C 10.136719 7.261719 11.023438 7 12 7 C 12.976563 7 13.863281 7.261719 14.59375 7.6875 C 14.386719 7.03125 14.203125 6.460938 14.1875 6.40625 C 13.976563 5.601563 13.085938 5 12 5 Z M 12 8 C 9.882813 8 8.128906 9.179688 7.71875 10.75 C 7.671875 10.929688 6.867188 12.980469 6.28125 14.84375 C 6.265625 14.882813 6.261719 14.929688 6.25 14.96875 C 6.246094 14.980469 6.222656 14.988281 6.21875 15 C 6.074219 15.472656 6 15.980469 6 16.5 C 6 19.585938 8.753906 22 12 22 C 15.246094 22 18 19.585938 18 16.5 C 18 15.980469 17.925781 15.472656 17.78125 15 C 17.78125 15 17.75 14.96875 17.75 14.96875 C 17.738281 14.929688 17.734375 14.882813 17.71875 14.84375 C 17.132813 12.980469 16.328125 10.929688 16.28125 10.75 C 15.871094 9.179688 14.117188 8 12 8 Z M 12 13 C 14.273438 13 16 14.613281 16 16.5 C 16 18.386719 14.273438 20 12 20 C 9.726563 20 8 18.386719 8 16.5 C 8 14.613281 9.726563 13 12 13 Z M 12 14.34375 C 11.449219 14.34375 11 14.695313 11 15.15625 C 11 15.617188 11.449219 16 12 16 C 12.550781 16 13 15.617188 13 15.15625 C 13 14.695313 12.550781 14.34375 12 14.34375 Z" fill="#131313"/></svg>
