<?xml version="1.0" encoding="utf-8"?>
<svg xmlns="http://www.w3.org/2000/svg" viewBox="0 0 24 24" fill="#131313"><path d="M 7 1 C 5.355469 1 4 2.355469 4 4 L 4 9.1875 L 6 8.75 L 6 4 C 6 3.433594 6.433594 3 7 3 L 17 3 C 17.566406 3 18 3.433594 18 4 L 18 8.75 L 20 9.1875 L 20 4 C 20 2.355469 18.644531 1 17 1 Z M 8.9375 5 L 8 9 L 7 10 L 2 11 L 2 19 L 7 17 L 8 18 L 8.9375 22 L 15.0625 22 L 16 18 L 17 17 L 22 19 L 22 11 L 17 10 L 16 9 L 15.0625 5 Z M 12 11 C 14.035156 11 15.6875 12.441406 15.6875 14.375 C 15.6875 16.308594 14.03125 18 12 18 C 9.96875 18 8.3125 16.433594 8.3125 14.5 C 8.3125 12.566406 9.964844 11 12 11 Z" fill="#131313"/></svg>
