<?xml version="1.0" encoding="utf-8"?>
<svg xmlns="http://www.w3.org/2000/svg" viewBox="0 0 24 24" fill="#131313"><path d="M 12 2 C 8.804688 2 6 4.117188 6 7 C 6 7.0625 5.996094 7.125 6 7.1875 C 6 7.1875 6 7.21875 6 7.21875 C 6.007813 10.207031 7 12.53125 7 12.53125 C 7 12.53125 8.734375 15 12 15 C 15.265625 15 17 12.53125 17 12.53125 C 17 12.53125 17.992188 10.226563 18 7.21875 C 18.003906 7.144531 18 7.074219 18 7 C 18 4.117188 15.195313 2 12 2 Z M 12 4 C 14.328125 4 16 5.464844 16 7 C 16 8.535156 14.328125 10 12 10 C 9.671875 10 8 8.535156 8 7 C 8 5.464844 9.671875 4 12 4 Z M 3 7 L 3 16.25 C 3 16.6875 3.300781 17.089844 3.71875 17.21875 L 9.46875 19 L 10.28125 19 C 10.222656 19.097656 10.164063 19.203125 10.125 19.3125 L 6 20 L 6 22 L 18 22 L 18 20 L 13.875 19.3125 C 13.835938 19.203125 13.777344 19.097656 13.71875 19 L 14.53125 19 L 20.28125 17.21875 C 20.699219 17.089844 21 16.6875 21 16.25 L 21 7 L 19 7 L 19 14.25 L 14 16 L 10 16 L 5 14.25 L 5 7 Z M 12 8 C 11.449219 8 11 8.410156 11 8.90625 C 11 9.402344 11.449219 9.8125 12 9.8125 C 12.550781 9.8125 13 9.402344 13 8.90625 C 13 8.410156 12.550781 8 12 8 Z" fill="#131313"/></svg>
