<svg xmlns="http://www.w3.org/2000/svg">

<symbol id="par" viewBox="0 0 24 24"><path class="lightPath" d="M 5 2 C 3.355469 2 2 3.355469 2 5 L 2 12 C 2 12.550781 2.449219 13 3 13 L 4.21875 13 L 4.6875 11 L 4 11 L 4 5 C 4 4.433594 4.433594 4 5 4 L 19 4 C 19.566406 4 20 4.433594 20 5 L 20 11 L 19.3125 11 L 19.78125 13 L 21 13 C 21.550781 13 22 12.550781 22 12 L 22 5 C 22 3.355469 20.644531 2 19 2 Z M 12 6 C 8.683594 6 6.75 8.375 6.75 8.375 C 6.75 8.375 5.285156 10.617188 5.03125 14.78125 C 5.003906 15.019531 5 15.253906 5 15.5 C 5 15.574219 4.996094 15.644531 5 15.71875 C 5 15.816406 5 15.898438 5 16 C 5 16 5.027344 15.933594 5.03125 15.90625 C 5.265625 19.332031 8.339844 22 12 22 C 15.660156 22 18.734375 19.332031 18.96875 15.90625 C 18.972656 15.933594 19 16 19 16 C 19 15.898438 19 15.816406 19 15.71875 C 19.003906 15.644531 19 15.574219 19 15.5 C 19 15.253906 18.996094 15.019531 18.96875 14.78125 C 18.714844 10.617188 17.25 8.375 17.25 8.375 C 17.25 8.375 15.316406 6 12 6 Z M 10 11.375 L 10 12 L 14 12 L 14 11.375 C 15.273438 11.875 16.261719 12.828125 16.71875 14 L 16 14 L 16 17 L 16.71875 17 C 16.261719 18.171875 15.273438 19.125 14 19.625 L 14 19 L 10 19 L 10 19.625 C 8.726563 19.125 7.738281 18.171875 7.28125 17 L 8 17 L 8 14 L 7.28125 14 C 7.738281 12.828125 8.726563 11.875 10 11.375 Z"/></svg>
</svg>
