<?xml version="1.0" encoding="utf-8"?>
<svg xmlns="http://www.w3.org/2000/svg" viewBox="0 0 24 24" fill="#131313"><path d="M 8 2 C 6.355469 2 5 3.355469 5 5 L 5 8 L 7.65625 8 L 8.34375 6 L 7 6 L 7 5 C 7 4.433594 7.433594 4 8 4 L 16 4 C 16.566406 4 17 4.433594 17 5 L 17 6 L 15.78125 6 L 16.46875 8 L 19 8 L 19 5 C 19 3.355469 17.644531 2 16 2 Z M 12 5 C 10.90625 5 9.992188 5.597656 9.78125 6.40625 C 9.769531 6.453125 9.546875 7.210938 9.375 7.75 C 7 9.074219 5 12.03125 5 15.5 C 5 15.5 5.023438 15.4375 5.03125 15.40625 C 5.007813 15.601563 5 15.796875 5 16 C 5 19.410156 8.234375 22 12 22 C 15.765625 22 19 19.410156 19 16 C 19 15.796875 18.992188 15.601563 18.96875 15.40625 C 18.976563 15.4375 19 15.5 19 15.5 C 19 12.019531 17.023438 9.074219 14.65625 7.75 C 14.484375 7.203125 14.230469 6.453125 14.21875 6.40625 C 14.007813 5.597656 13.09375 5 12 5 Z M 12 12 C 14.863281 12 17 13.886719 17 16 C 17 18.113281 14.863281 20 12 20 C 9.136719 20 7 18.113281 7 16 C 7 13.886719 9.136719 12 12 12 Z M 12 13.5 C 11.171875 13.5 10.5 14.171875 10.5 15 C 10.5 15.828125 11.171875 16.5 12 16.5 C 12.828125 16.5 13.5 15.828125 13.5 15 C 13.5 14.171875 12.828125 13.5 12 13.5 Z" fill="#131313"/></svg>
