<svg id="Layer_1" data-name="Layer 1" xmlns="http://www.w3.org/2000/svg" viewBox="0 0 512 512"><defs><style>.cls-1{fill:#4c4c56;stroke:#4c4c56;stroke-miterlimit:10;stroke-width:20px;}</style></defs><title>Artboard 1</title><path class="cls-1" d="M256,15.18C123,15.18,15.18,123,15.18,256S123,496.82,256,496.82,496.82,389,496.82,256,389,15.18,256,15.18Zm0,458.15C136,473.33,38.67,376,38.67,256S136,38.67,256,38.67c45.65,0,90.67,10.82,123.92,37.24,11.77,9.36,34,27.8,44.42,38.69,33.73,35.38,49,88.73,49,141.4C473.33,376,376,473.33,256,473.33Z"/><path id="path2285" class="cls-1" d="M232,389.2a24,24,0,1,0,24-24A24,24,0,0,0,232,389.2Z"/><path id="path2281" class="cls-1" d="M128.32,334.74a24,24,0,1,0,24-24A24,24,0,0,0,128.32,334.74Z"/><path id="path3453" class="cls-1" d="M90.39,236.31a24,24,0,1,0,24-24A24,24,0,0,0,90.39,236.31Z"/><path id="path3463" class="cls-1" d="M383.68,334.74a24,24,0,1,1-24-24A24,24,0,0,1,383.68,334.74Z"/><path id="path3465" class="cls-1" d="M421.61,236.31a24,24,0,1,1-24-24A24,24,0,0,1,421.61,236.31Z"/></svg>