<?xml version="1.0" encoding="utf-8"?>
<svg xmlns="http://www.w3.org/2000/svg" viewBox="0 0 24 24" fill="#4c4c56"><path d="M 7 1 C 5.895 1 5 1.895 5 3 L 5 21 C 5 22.105 5.895 23 7 23 L 17 23 C 18.105 23 19 22.105 19 21 L 19 19 L 17 17 L 17 19 L 7 19 L 7 5 L 17 5 L 17 7 L 19 5 L 19 3 C 19 1.895 18.105 1 17 1 L 7 1 z M 20.65625 6.34375 L 19.242188 7.7578125 C 21.581187 10.097812 21.581187 13.902187 19.242188 16.242188 L 20.65625 17.65625 C 23.77525 14.53725 23.77525 9.46275 20.65625 6.34375 z M 17.828125 9.171875 L 16.414062 10.585938 C 16.792063 10.963938 17 11.466 17 12 C 17 12.534 16.792063 13.036062 16.414062 13.414062 L 17.828125 14.828125 C 18.584125 14.073125 19 13.068 19 12 C 19 10.932 18.584125 9.926875 17.828125 9.171875 z" fill="#4c4c56"/></svg>
